<?xml version="1.0" encoding="utf-8" standalone="no"?>
<!DOCTYPE svg PUBLIC "-//W3C//DTD SVG 1.1//EN"
  "http://www.w3.org/Graphics/SVG/1.1/DTD/svg11.dtd">
<!-- Created with matplotlib (https://matplotlib.org/) -->
<svg height="360pt" version="1.1" viewBox="0 0 396 360" width="396pt" xmlns="http://www.w3.org/2000/svg" xmlns:xlink="http://www.w3.org/1999/xlink">
 <metadata>
  <rdf:RDF xmlns:cc="http://creativecommons.org/ns#" xmlns:dc="http://purl.org/dc/elements/1.1/" xmlns:rdf="http://www.w3.org/1999/02/22-rdf-syntax-ns#">
   <cc:Work>
    <dc:type rdf:resource="http://purl.org/dc/dcmitype/StillImage"/>
    <dc:date>2021-05-10T17:57:16.679765</dc:date>
    <dc:format>image/svg+xml</dc:format>
    <dc:creator>
     <cc:Agent>
      <dc:title>Matplotlib v3.3.2, https://matplotlib.org/</dc:title>
     </cc:Agent>
    </dc:creator>
   </cc:Work>
  </rdf:RDF>
 </metadata>
 <defs>
  <style type="text/css">*{stroke-linecap:butt;stroke-linejoin:round;}</style>
 </defs>
 <g id="figure_1">
  <g id="patch_1">
   <path d="M 0 360 
L 396 360 
L 396 0 
L 0 0 
z
" style="fill:#ffffff;"/>
  </g>
  <g id="axes_1">
   <g id="legend_1">
    <g id="patch_2">
     <path d="M 14 350 
L 1009.303125 350 
Q 1013.303125 350 1013.303125 346 
L 1013.303125 318.64375 
Q 1013.303125 314.64375 1009.303125 314.64375 
L 14 314.64375 
Q 10 314.64375 10 318.64375 
L 10 346 
Q 10 350 14 350 
z
" style="fill:#ffffff;stroke:#cccccc;stroke-linejoin:miter;"/>
    </g>
    <g id="line2d_1">
     <path d="M 18 330.840625 
L 58 330.840625 
" style="fill:none;stroke:#ffa500;stroke-linecap:round;stroke-width:1.5;"/>
    </g>
    <g id="line2d_2">
     <defs>
      <path d="M 0 3 
C 0.795609 3 1.55874 2.683901 2.12132 2.12132 
C 2.683901 1.55874 3 0.795609 3 0 
C 3 -0.795609 2.683901 -1.55874 2.12132 -2.12132 
C 1.55874 -2.683901 0.795609 -3 0 -3 
C -0.795609 -3 -1.55874 -2.683901 -2.12132 -2.12132 
C -2.683901 -1.55874 -3 -0.795609 -3 0 
C -3 0.795609 -2.683901 1.55874 -2.12132 2.12132 
C -1.55874 2.683901 -0.795609 3 0 3 
z
" id="mf1212a9e09" style="stroke:#ffa500;"/>
     </defs>
     <g>
      <use style="fill:#ffa500;stroke:#ffa500;" x="38" xlink:href="#mf1212a9e09" y="330.840625"/>
     </g>
    </g>
    <g id="text_1">
     <!-- Dist. A -->
     <g style="fill:#262626;" transform="translate(74 337.840625)scale(0.2 -0.2)">
      <defs>
       <path d="M 32.8125 5.90625 
L 39.59375 5.90625 
Q 51.03125 5.90625 56.328125 13.234375 
Q 61.625 20.5625 61.625 36.53125 
Q 61.625 52.390625 56.34375 59.6875 
Q 51.078125 67 39.59375 67 
L 32.8125 67 
z
M 4.6875 0 
L 4.6875 5.90625 
L 14.015625 5.90625 
L 14.015625 67 
L 4.6875 67 
L 4.6875 72.90625 
L 42.09375 72.90625 
Q 61.71875 72.90625 72.109375 63.53125 
Q 82.515625 54.15625 82.515625 36.53125 
Q 82.515625 18.796875 72.09375 9.390625 
Q 61.671875 0 42.09375 0 
z
" id="DejaVuSerif-Bold-68"/>
       <path d="M 9.1875 66.609375 
Q 9.1875 70.5625 11.921875 73.265625 
Q 14.65625 75.984375 18.609375 75.984375 
Q 22.46875 75.984375 25.171875 73.265625 
Q 27.875 70.5625 27.875 66.609375 
Q 27.875 62.75 25.171875 60.03125 
Q 22.46875 57.328125 18.609375 57.328125 
Q 14.65625 57.328125 11.921875 60.015625 
Q 9.1875 62.703125 9.1875 66.609375 
z
M 28.078125 5.90625 
L 35.5 5.90625 
L 35.5 0 
L 3.421875 0 
L 3.421875 5.90625 
L 10.796875 5.90625 
L 10.796875 46 
L 3.421875 46 
L 3.421875 51.90625 
L 28.078125 51.90625 
z
" id="DejaVuSerif-Bold-105"/>
       <path d="M 4.6875 1.515625 
L 4.6875 16.015625 
L 10.203125 16.015625 
Q 10.890625 10.203125 14.546875 7.15625 
Q 18.21875 4.109375 24.515625 4.109375 
Q 29.78125 4.109375 32.59375 5.9375 
Q 35.40625 7.765625 35.40625 11.1875 
Q 35.40625 14.3125 33.625 16.015625 
Q 31.84375 17.71875 26.703125 19 
L 19.578125 20.796875 
Q 11.53125 22.796875 7.90625 26.53125 
Q 4.296875 30.28125 4.296875 36.625 
Q 4.296875 45.0625 10.15625 49.1875 
Q 16.015625 53.328125 28.21875 53.328125 
Q 32.8125 53.328125 38.015625 52.5625 
Q 43.21875 51.8125 49.515625 50.203125 
L 49.515625 37.109375 
L 44 37.109375 
Q 43.5625 42.4375 40.203125 45.109375 
Q 36.859375 47.796875 30.609375 47.796875 
Q 25.34375 47.796875 22.625 46.109375 
Q 19.921875 44.4375 19.921875 41.21875 
Q 19.921875 38.578125 21.484375 37.0625 
Q 23.046875 35.546875 27.09375 34.515625 
L 34.1875 32.71875 
Q 44.390625 30.125 48.296875 26.3125 
Q 52.203125 22.515625 52.203125 15.71875 
Q 52.203125 6.9375 45.921875 2.75 
Q 39.65625 -1.421875 26.421875 -1.421875 
Q 21.578125 -1.421875 16.15625 -0.6875 
Q 10.75 0.046875 4.6875 1.515625 
z
" id="DejaVuSerif-Bold-115"/>
       <path d="M 9.90625 46 
L 2.390625 46 
L 2.390625 51.90625 
L 9.90625 51.90625 
L 9.90625 68.015625 
L 27.203125 68.015625 
L 27.203125 51.90625 
L 41.609375 51.90625 
L 41.609375 46 
L 27.203125 46 
L 27.203125 14.203125 
Q 27.203125 7.421875 28.265625 5.765625 
Q 29.34375 4.109375 32.171875 4.109375 
Q 35.296875 4.109375 36.8125 6.203125 
Q 38.328125 8.296875 38.421875 12.703125 
L 45.703125 12.703125 
Q 45.265625 4.890625 41.421875 1.734375 
Q 37.59375 -1.421875 28.21875 -1.421875 
Q 17.53125 -1.421875 13.71875 1.921875 
Q 9.90625 5.28125 9.90625 14.203125 
z
" id="DejaVuSerif-Bold-116"/>
       <path d="M 8.109375 7.90625 
Q 8.109375 11.71875 10.84375 14.453125 
Q 13.578125 17.1875 17.390625 17.1875 
Q 21.234375 17.1875 23.96875 14.453125 
Q 26.703125 11.71875 26.703125 7.90625 
Q 26.703125 4.046875 23.96875 1.3125 
Q 21.234375 -1.421875 17.390625 -1.421875 
Q 13.578125 -1.421875 10.84375 1.3125 
Q 8.109375 4.046875 8.109375 7.90625 
z
" id="DejaVuSerif-Bold-46"/>
       <path id="DejaVuSerif-Bold-32"/>
       <path d="M -0.78125 0 
L -0.78125 5.90625 
L 5.171875 5.90625 
L 32.625 72.90625 
L 44.28125 72.90625 
L 71.78125 5.90625 
L 78.71875 5.90625 
L 78.71875 0 
L 44.578125 0 
L 44.578125 5.90625 
L 51.703125 5.90625 
L 45.703125 20.796875 
L 18.3125 20.796875 
L 12.203125 5.90625 
L 20.90625 5.90625 
L 20.90625 0 
z
M 20.703125 26.703125 
L 43.3125 26.703125 
L 32.078125 54.59375 
z
" id="DejaVuSerif-Bold-65"/>
      </defs>
      <use xlink:href="#DejaVuSerif-Bold-68"/>
      <use x="86.71875" xlink:href="#DejaVuSerif-Bold-105"/>
      <use x="124.707031" xlink:href="#DejaVuSerif-Bold-115"/>
      <use x="181.005859" xlink:href="#DejaVuSerif-Bold-116"/>
      <use x="227.197266" xlink:href="#DejaVuSerif-Bold-46"/>
      <use x="262.011719" xlink:href="#DejaVuSerif-Bold-32"/>
      <use x="296.826172" xlink:href="#DejaVuSerif-Bold-65"/>
     </g>
    </g>
    <g id="line2d_3">
     <path d="M 188.88125 330.840625 
L 228.88125 330.840625 
" style="fill:none;stroke:#00bfff;stroke-linecap:round;stroke-width:1.5;"/>
    </g>
    <g id="line2d_4">
     <defs>
      <path d="M 0 -3 
L -0.673542 -0.927051 
L -2.85317 -0.927051 
L -1.089814 0.354102 
L -1.763356 2.427051 
L -0 1.145898 
L 1.763356 2.427051 
L 1.089814 0.354102 
L 2.85317 -0.927051 
L 0.673542 -0.927051 
z
" id="m4867a55f48" style="stroke:#00bfff;stroke-linejoin:bevel;"/>
     </defs>
     <g>
      <use style="fill:#00bfff;stroke:#00bfff;stroke-linejoin:bevel;" x="208.88125" xlink:href="#m4867a55f48" y="330.840625"/>
     </g>
    </g>
    <g id="text_2">
     <!-- Dist. B -->
     <g style="fill:#262626;" transform="translate(244.88125 337.840625)scale(0.2 -0.2)">
      <defs>
       <path d="M 4.6875 0 
L 4.6875 5.90625 
L 14.015625 5.90625 
L 14.015625 67 
L 4.6875 67 
L 4.6875 72.90625 
L 47.90625 72.90625 
Q 61.234375 72.90625 67.921875 68.40625 
Q 74.609375 63.921875 74.609375 54.890625 
Q 74.609375 48.390625 69.984375 44.578125 
Q 65.375 40.765625 56.296875 39.796875 
Q 67.28125 38.765625 73.140625 33.9375 
Q 79 29.109375 79 21.09375 
Q 79 10.25 70.8125 5.125 
Q 62.640625 0 45.21875 0 
z
M 32.8125 42.484375 
L 39.203125 42.484375 
Q 47.609375 42.484375 51.65625 45.53125 
Q 55.71875 48.578125 55.71875 54.890625 
Q 55.71875 61.234375 51.78125 64.109375 
Q 47.859375 67 39.203125 67 
L 32.8125 67 
z
M 32.8125 5.90625 
L 39.796875 5.90625 
Q 49.125 5.90625 53.609375 9.609375 
Q 58.109375 13.328125 58.109375 21.09375 
Q 58.109375 28.90625 53.5625 32.765625 
Q 49.03125 36.625 39.796875 36.625 
L 32.8125 36.625 
z
" id="DejaVuSerif-Bold-66"/>
      </defs>
      <use xlink:href="#DejaVuSerif-Bold-68"/>
      <use x="86.71875" xlink:href="#DejaVuSerif-Bold-105"/>
      <use x="124.707031" xlink:href="#DejaVuSerif-Bold-115"/>
      <use x="181.005859" xlink:href="#DejaVuSerif-Bold-116"/>
      <use x="227.197266" xlink:href="#DejaVuSerif-Bold-46"/>
      <use x="262.011719" xlink:href="#DejaVuSerif-Bold-32"/>
      <use x="296.826172" xlink:href="#DejaVuSerif-Bold-66"/>
     </g>
    </g>
    <g id="line2d_5">
     <path d="M 361.146875 330.840625 
L 397 330.840625 
" style="fill:none;stroke:#3cb371;stroke-linecap:round;stroke-width:1.5;"/>
    </g>
    <g id="line2d_6">
     <defs>
      <path d="M -3 0 
L 3 0 
M 0 3 
L 0 -3 
" id="m9a09e7d36b" style="stroke:#3cb371;"/>
     </defs>
     <g>
      <use style="fill:#3cb371;stroke:#3cb371;" x="381.146875" xlink:href="#m9a09e7d36b" y="330.840625"/>
     </g>
    </g>
    <g id="text_3">
     <!-- Dist. C -->
     <g style="fill:#262626;" transform="translate(417.146875 337.840625)scale(0.2 -0.2)">
      <defs>
       <path d="M 74.515625 20.796875 
Q 71.625 9.515625 64.15625 4.046875 
Q 56.6875 -1.421875 44.09375 -1.421875 
Q 25.640625 -1.421875 14.921875 8.765625 
Q 4.203125 18.953125 4.203125 36.375 
Q 4.203125 53.859375 14.921875 64.03125 
Q 25.640625 74.21875 44.09375 74.21875 
Q 50.59375 74.21875 57.625 72.65625 
Q 64.65625 71.09375 72.515625 67.921875 
L 72.515625 50 
L 66.3125 50 
Q 64.40625 59.1875 59.375 63.75 
Q 54.34375 68.3125 46.09375 68.3125 
Q 35.453125 68.3125 30.265625 60.46875 
Q 25.09375 52.640625 25.09375 36.375 
Q 25.09375 20.125 30.265625 12.3125 
Q 35.453125 4.5 46.1875 4.5 
Q 53.46875 4.5 58.078125 8.546875 
Q 62.703125 12.59375 64.796875 20.796875 
z
" id="DejaVuSerif-Bold-67"/>
      </defs>
      <use xlink:href="#DejaVuSerif-Bold-68"/>
      <use x="86.71875" xlink:href="#DejaVuSerif-Bold-105"/>
      <use x="124.707031" xlink:href="#DejaVuSerif-Bold-115"/>
      <use x="181.005859" xlink:href="#DejaVuSerif-Bold-116"/>
      <use x="227.197266" xlink:href="#DejaVuSerif-Bold-46"/>
      <use x="262.011719" xlink:href="#DejaVuSerif-Bold-32"/>
      <use x="296.826172" xlink:href="#DejaVuSerif-Bold-67"/>
     </g>
    </g>
    <g id="line2d_7">
     <path style="fill:none;stroke:#da70d6;stroke-linecap:round;stroke-width:1.5;"/>
    </g>
    <g id="line2d_8">
     <defs>
      <path d="M 0 -3 
L -3 3 
L 3 3 
z
" id="m46e3e60246" style="stroke:#da70d6;stroke-linejoin:miter;"/>
     </defs>
     <g>
      <use style="fill:#da70d6;stroke:#da70d6;stroke-linejoin:miter;" x="552.428125" xlink:href="#m46e3e60246" y="330.840625"/>
     </g>
    </g>
    <g id="text_4">
     <!-- Dist. D -->
     <g style="fill:#262626;" transform="translate(588.428125 337.840625)scale(0.2 -0.2)">
      <use xlink:href="#DejaVuSerif-Bold-68"/>
      <use x="86.71875" xlink:href="#DejaVuSerif-Bold-105"/>
      <use x="124.707031" xlink:href="#DejaVuSerif-Bold-115"/>
      <use x="181.005859" xlink:href="#DejaVuSerif-Bold-116"/>
      <use x="227.197266" xlink:href="#DejaVuSerif-Bold-46"/>
      <use x="262.011719" xlink:href="#DejaVuSerif-Bold-32"/>
      <use x="296.826172" xlink:href="#DejaVuSerif-Bold-68"/>
     </g>
    </g>
    <g id="line2d_9">
     <path style="fill:none;stroke:#0000ff;stroke-linecap:round;stroke-width:1.5;"/>
    </g>
    <g id="line2d_10">
     <defs>
      <path d="M -3 -0 
L 3 3 
L 3 -3 
z
" id="m89914163df" style="stroke:#0000ff;stroke-linejoin:miter;"/>
     </defs>
     <g>
      <use style="fill:#0000ff;stroke:#0000ff;stroke-linejoin:miter;" x="725.134375" xlink:href="#m89914163df" y="330.840625"/>
     </g>
    </g>
    <g id="text_5">
     <!-- Dist. E -->
     <g style="fill:#262626;" transform="translate(761.134375 337.840625)scale(0.2 -0.2)">
      <defs>
       <path d="M 4.6875 0 
L 4.6875 5.90625 
L 14.015625 5.90625 
L 14.015625 67 
L 4.6875 67 
L 4.6875 72.90625 
L 70.21875 72.90625 
L 70.21875 55.71875 
L 63.484375 55.71875 
L 63.484375 66.21875 
L 32.8125 66.21875 
L 32.8125 42.828125 
L 51.90625 42.828125 
L 51.90625 52.09375 
L 58.59375 52.09375 
L 58.59375 26.90625 
L 51.90625 26.90625 
L 51.90625 36.1875 
L 32.8125 36.1875 
L 32.8125 6.6875 
L 64.40625 6.6875 
L 64.40625 17.1875 
L 71.09375 17.1875 
L 71.09375 0 
z
" id="DejaVuSerif-Bold-69"/>
      </defs>
      <use xlink:href="#DejaVuSerif-Bold-68"/>
      <use x="86.71875" xlink:href="#DejaVuSerif-Bold-105"/>
      <use x="124.707031" xlink:href="#DejaVuSerif-Bold-115"/>
      <use x="181.005859" xlink:href="#DejaVuSerif-Bold-116"/>
      <use x="227.197266" xlink:href="#DejaVuSerif-Bold-46"/>
      <use x="262.011719" xlink:href="#DejaVuSerif-Bold-32"/>
      <use x="296.826172" xlink:href="#DejaVuSerif-Bold-69"/>
     </g>
    </g>
    <g id="line2d_11">
     <path style="fill:none;stroke:#ff0000;stroke-linecap:round;stroke-width:1.5;"/>
    </g>
    <g id="line2d_12">
     <defs>
      <path d="M 3 0 
L -3 -3 
L -3 3 
z
" id="m5ea0952d98" style="stroke:#ff0000;stroke-linejoin:miter;"/>
     </defs>
     <g>
      <use style="fill:#ff0000;stroke:#ff0000;stroke-linejoin:miter;" x="895.740625" xlink:href="#m5ea0952d98" y="330.840625"/>
     </g>
    </g>
    <g id="text_6">
     <!-- Dist. F -->
     <g style="fill:#262626;" transform="translate(931.740625 337.840625)scale(0.2 -0.2)">
      <defs>
       <path d="M 4.6875 0 
L 4.6875 5.90625 
L 14.015625 5.90625 
L 14.015625 67 
L 4.6875 67 
L 4.6875 72.90625 
L 69.671875 72.90625 
L 69.671875 55.71875 
L 62.984375 55.71875 
L 62.984375 66.21875 
L 32.90625 66.21875 
L 32.90625 42.828125 
L 51.421875 42.828125 
L 51.421875 52.09375 
L 58.109375 52.09375 
L 58.109375 26.90625 
L 51.421875 26.90625 
L 51.421875 36.1875 
L 32.90625 36.1875 
L 32.90625 5.90625 
L 44.390625 5.90625 
L 44.390625 0 
z
" id="DejaVuSerif-Bold-70"/>
      </defs>
      <use xlink:href="#DejaVuSerif-Bold-68"/>
      <use x="86.71875" xlink:href="#DejaVuSerif-Bold-105"/>
      <use x="124.707031" xlink:href="#DejaVuSerif-Bold-115"/>
      <use x="181.005859" xlink:href="#DejaVuSerif-Bold-116"/>
      <use x="227.197266" xlink:href="#DejaVuSerif-Bold-46"/>
      <use x="262.011719" xlink:href="#DejaVuSerif-Bold-32"/>
      <use x="296.826172" xlink:href="#DejaVuSerif-Bold-70"/>
     </g>
    </g>
   </g>
  </g>
 </g>
</svg>
